<svg xmlns="http://www.w3.org/2000/svg" viewBox="0 0 1600 900" role="img" aria-label="云函数 AI 代理封面图">
  <defs>
    <linearGradient id="bg" x1="0" x2="1" y1="0" y2="1">
      <stop offset="0" stop-color="#07111f"/>
      <stop offset="0.5" stop-color="#13253a"/>
      <stop offset="1" stop-color="#0d332f"/>
    </linearGradient>
    <radialGradient id="halo" cx="50%" cy="50%" r="45%">
      <stop offset="0" stop-color="#60d2df" stop-opacity="0.48"/>
      <stop offset="1" stop-color="#60d2df" stop-opacity="0"/>
    </radialGradient>
    <filter id="glow" x="-50%" y="-50%" width="200%" height="200%">
      <feGaussianBlur stdDeviation="12" result="blur"/>
      <feMerge>
        <feMergeNode in="blur"/>
        <feMergeNode in="SourceGraphic"/>
      </feMerge>
    </filter>
  </defs>
  <rect width="1600" height="900" fill="url(#bg)"/>
  <rect width="1600" height="900" fill="url(#halo)"/>
  <g opacity="0.14" stroke="#ffffff" stroke-width="1">
    <path d="M0 150H1600M0 300H1600M0 450H1600M0 600H1600M0 750H1600"/>
    <path d="M160 0V900M320 0V900M480 0V900M640 0V900M800 0V900M960 0V900M1120 0V900M1280 0V900M1440 0V900"/>
  </g>
  <g filter="url(#glow)">
    <rect x="604" y="248" width="392" height="404" rx="46" fill="#101d2e" stroke="#60d2df" stroke-opacity="0.72" stroke-width="5"/>
    <circle cx="800" cy="450" r="96" fill="none" stroke="#d89532" stroke-width="7" opacity="0.76"/>
    <path d="M752 450h96M800 402v96" stroke="#ffffff" stroke-width="12" stroke-linecap="round" opacity="0.86"/>
  </g>
  <g fill="none" stroke-linecap="round" stroke-width="8">
    <path d="M234 268C392 268 442 388 604 388" stroke="#60d2df" opacity="0.62"/>
    <path d="M234 450H604" stroke="#60d2df" opacity="0.78"/>
    <path d="M234 632C392 632 442 512 604 512" stroke="#60d2df" opacity="0.62"/>
    <path d="M996 388C1160 388 1210 268 1370 268" stroke="#d89532" opacity="0.62"/>
    <path d="M996 450H1370" stroke="#d89532" opacity="0.78"/>
    <path d="M996 512C1160 512 1210 632 1370 632" stroke="#d89532" opacity="0.62"/>
  </g>
  <g fill="#ffffff" opacity="0.78">
    <circle cx="234" cy="268" r="20"/>
    <circle cx="234" cy="450" r="20"/>
    <circle cx="234" cy="632" r="20"/>
    <circle cx="1370" cy="268" r="20"/>
    <circle cx="1370" cy="450" r="20"/>
    <circle cx="1370" cy="632" r="20"/>
  </g>
</svg>
