<svg xmlns="http://www.w3.org/2000/svg" viewBox="0 0 2400 1400" preserveAspectRatio="xMidYMid slice">
  <defs>
    <radialGradient id="g1" cx="72%" cy="25%" r="52%">
      <stop offset="0" stop-color="#60d2ff" stop-opacity="0.95"/>
      <stop offset="0.34" stop-color="#255bff" stop-opacity="0.38"/>
      <stop offset="1" stop-color="#030512" stop-opacity="0"/>
    </radialGradient>
    <radialGradient id="g2" cx="24%" cy="65%" r="46%">
      <stop offset="0" stop-color="#b07cff" stop-opacity="0.68"/>
      <stop offset="0.42" stop-color="#7437ff" stop-opacity="0.24"/>
      <stop offset="1" stop-color="#030512" stop-opacity="0"/>
    </radialGradient>
    <linearGradient id="line" x1="0" x2="1" y1="0" y2="0">
      <stop offset="0" stop-color="#63e6ff" stop-opacity="0"/>
      <stop offset="0.48" stop-color="#63e6ff" stop-opacity="0.78"/>
      <stop offset="1" stop-color="#63e6ff" stop-opacity="0"/>
    </linearGradient>
    <pattern id="grid" width="72" height="72" patternUnits="userSpaceOnUse">
      <path d="M72 0H0V72" fill="none" stroke="#ffffff" stroke-opacity="0.075" stroke-width="1"/>
    </pattern>
    <filter id="glow" x="-60%" y="-60%" width="220%" height="220%">
      <feGaussianBlur stdDeviation="10" result="blur"/>
      <feMerge>
        <feMergeNode in="blur"/>
        <feMergeNode in="SourceGraphic"/>
      </feMerge>
    </filter>
  </defs>
  <rect width="2400" height="1400" fill="#030512"/>
  <rect width="2400" height="1400" fill="url(#g1)"/>
  <rect width="2400" height="1400" fill="url(#g2)"/>
  <rect width="2400" height="1400" fill="url(#grid)"/>
  <g opacity="0.64" filter="url(#glow)">
    <path d="M190 990 C520 720 720 790 1020 545 S1540 210 2210 330" fill="none" stroke="url(#line)" stroke-width="5"/>
    <path d="M280 470 C620 320 900 380 1180 590 S1700 955 2200 740" fill="none" stroke="#8f7cff" stroke-opacity="0.34" stroke-width="4"/>
    <path d="M470 1160 C880 930 1070 965 1360 735 S1810 365 2140 430" fill="none" stroke="#57f5c8" stroke-opacity="0.28" stroke-width="3"/>
  </g>
  <g fill="#dffbff" opacity="0.9" filter="url(#glow)">
    <circle cx="455" cy="850" r="7"/>
    <circle cx="725" cy="725" r="5"/>
    <circle cx="1015" cy="548" r="8"/>
    <circle cx="1345" cy="384" r="5"/>
    <circle cx="1650" cy="296" r="8"/>
    <circle cx="1985" cy="322" r="6"/>
    <circle cx="600" cy="370" r="6"/>
    <circle cx="1180" cy="590" r="5"/>
    <circle cx="1740" cy="850" r="7"/>
  </g>
  <g opacity="0.2">
    <circle cx="1810" cy="610" r="220" fill="none" stroke="#ffffff" stroke-width="1.5"/>
    <circle cx="1810" cy="610" r="145" fill="none" stroke="#ffffff" stroke-width="1"/>
    <path d="M1590 610h440M1810 390v440" stroke="#ffffff" stroke-width="1"/>
  </g>
  <g opacity="0.18" fill="#ffffff">
    <text x="142" y="126" font-family="Consolas, monospace" font-size="26">multi-agent / reinforcement learning / rgb-ir fusion</text>
    <text x="1510" y="1240" font-family="Consolas, monospace" font-size="24">uav low-altitude emergency perception</text>
  </g>
  <rect width="2400" height="1400" fill="none" stroke="#ffffff" stroke-opacity="0.08" stroke-width="2"/>
</svg>
