<svg xmlns="http://www.w3.org/2000/svg" viewBox="0 0 1600 900" role="img" aria-label="小程序云开发架构封面图">
  <defs>
    <linearGradient id="bg" x1="0" x2="1" y1="0" y2="1">
      <stop offset="0" stop-color="#07111f"/>
      <stop offset="0.58" stop-color="#0f2b35"/>
      <stop offset="1" stop-color="#172033"/>
    </linearGradient>
    <linearGradient id="card" x1="0" x2="1">
      <stop offset="0" stop-color="#21a6b8" stop-opacity="0.22"/>
      <stop offset="1" stop-color="#d89532" stop-opacity="0.14"/>
    </linearGradient>
    <filter id="glow" x="-50%" y="-50%" width="200%" height="200%">
      <feGaussianBlur stdDeviation="10" result="blur"/>
      <feMerge>
        <feMergeNode in="blur"/>
        <feMergeNode in="SourceGraphic"/>
      </feMerge>
    </filter>
  </defs>
  <rect width="1600" height="900" fill="url(#bg)"/>
  <g opacity="0.16" stroke="#ffffff" stroke-width="1">
    <path d="M0 120H1600M0 240H1600M0 360H1600M0 480H1600M0 600H1600M0 720H1600M0 840H1600"/>
    <path d="M120 0V900M240 0V900M360 0V900M480 0V900M600 0V900M720 0V900M840 0V900M960 0V900M1080 0V900M1200 0V900M1320 0V900M1440 0V900"/>
  </g>
  <g filter="url(#glow)">
    <path d="M220 450H520M520 450H820M820 450H1120M1120 450H1380" stroke="#60d2df" stroke-width="8" stroke-linecap="round" opacity="0.72"/>
    <path d="M820 450V245M820 450V655" stroke="#d89532" stroke-width="6" stroke-linecap="round" opacity="0.62"/>
    <circle cx="220" cy="450" r="18" fill="#60d2df"/>
    <circle cx="520" cy="450" r="18" fill="#60d2df"/>
    <circle cx="820" cy="450" r="22" fill="#f0c16f"/>
    <circle cx="1120" cy="450" r="18" fill="#60d2df"/>
    <circle cx="1380" cy="450" r="18" fill="#60d2df"/>
  </g>
  <g fill="url(#card)" stroke="#ffffff" stroke-opacity="0.22" stroke-width="2">
    <rect x="116" y="330" width="208" height="240" rx="18"/>
    <rect x="416" y="330" width="208" height="240" rx="18"/>
    <rect x="716" y="330" width="208" height="240" rx="18"/>
    <rect x="1016" y="330" width="208" height="240" rx="18"/>
    <rect x="1276" y="330" width="208" height="240" rx="18"/>
  </g>
  <g fill="none" stroke="#ffffff" stroke-opacity="0.52" stroke-linecap="round" stroke-width="10">
    <path d="M178 420h84M178 462h118M178 504h62"/>
    <path d="M478 420h84M478 462h118M478 504h62"/>
    <path d="M778 420h84M778 462h118M778 504h62"/>
    <path d="M1078 420h84M1078 462h118M1078 504h62"/>
    <path d="M1338 420h84M1338 462h82M1338 504h62"/>
  </g>
  <circle cx="1320" cy="160" r="94" fill="#21a6b8" opacity="0.18"/>
  <circle cx="1320" cy="160" r="54" fill="none" stroke="#60d2df" stroke-width="4" opacity="0.42"/>
  <path d="M182 170c220-82 404-76 553 18s325 112 530-4" fill="none" stroke="#d89532" stroke-width="5" opacity="0.3"/>
</svg>
